<?xml version="1.0" encoding="utf-8"?>
<!-- Generator: Adobe Illustrator 19.0.0, SVG Export Plug-In . SVG Version: 6.00 Build 0)  -->
<svg version="1.1" id="Capa_1" xmlns="http://www.w3.org/2000/svg" xmlns:xlink="http://www.w3.org/1999/xlink" x="0px" y="0px"
	 viewBox="0 0 51 39.7" style="enable-background:new 0 0 51 39.7;" xml:space="preserve">
<style type="text/css">
	.st0{fill:#385894;}
	.st1{fill:#FFFFFF;}
	.st2{fill:#F4C218;}
</style>
<g id="XMLID_80_">
	<g id="XMLID_38_">
		<g id="XMLID_39_">
			<g id="XMLID_40_">
				<path id="XMLID_41_" class="st0" d="M32.3,13.8"/>
			</g>
		</g>
	</g>
	<g id="XMLID_36_">
		<polygon id="XMLID_37_" class="st1" points="46,18.7 46,17.5 38.5,13.7 9,29.6 8,31.4 38.6,14.9 		"/>
	</g>
	<g id="XMLID_34_">
		<polygon id="XMLID_35_" class="st2" points="38.6,11.6 46,15.5 46,13.5 38.8,9.8 31.8,13.6 26,3.5 16.6,19.7 14.9,22.7 12.3,24.1 
			10.8,26.7 		"/>
	</g>
	<g id="XMLID_32_">
		<polygon id="XMLID_33_" class="st2" points="10.1,36 26,36 44.8,36 36.6,21.9 		"/>
	</g>
	<g id="XMLID_30_">
		<polygon id="XMLID_31_" class="st1" points="46,21.2 46,20.8 38.5,16.9 7.1,33.8 6.2,34.3 5,36.2 38.8,18.2 41.1,19.4 41.2,19.4 
			37.5,21.4 38,22.2 42.3,20 44.6,21.1 39.1,24.1 39.8,25.2 46,21.9 		"/>
	</g>
	<g id="XMLID_28_">
		<polygon id="XMLID_29_" class="st1" points="38.6,11.6 46,15.5 46,13.5 38.8,9.8 31.8,13.6 31.8,13.6 14.9,22.7 14.9,22.7 
			12.3,24.1 10.8,26.7 		"/>
	</g>
</g>
</svg>
